<svg xmlns="http://www.w3.org/2000/svg" viewBox="0 0 920 520" role="img" aria-label="OntoCode Explorer preview">
  <defs>
    <style>
      .bg { fill: #1e1e1e; }
      .sidebar { fill: #252526; }
      .panel { fill: #2d2d2d; }
      .border { stroke: #3c3c3c; stroke-width: 1; fill: none; }
      .title { fill: #cccccc; font-family: system-ui, sans-serif; font-size: 13px; font-weight: 600; }
      .text { fill: #9cdcfe; font-family: system-ui, sans-serif; font-size: 12px; }
      .muted { fill: #858585; font-family: system-ui, sans-serif; font-size: 11px; }
      .accent { fill: #4ec9b0; }
      .highlight { fill: #264f78; }
    </style>
  </defs>
  <rect class="bg" width="920" height="520"/>
  <rect class="sidebar" x="0" y="0" width="56" height="520"/>
  <rect class="highlight" x="0" y="88" width="56" height="40"/>
  <text class="muted" x="14" y="112">OC</text>
  <rect class="panel" x="56" y="0" width="220" height="520"/>
  <rect class="border" x="56" y="0" width="220" height="520"/>
  <text class="title" x="68" y="28">ONTOCODE</text>
  <text class="title" x="68" y="56">Ontologies</text>
  <text class="text" x="80" y="78">example.ttl</text>
  <text class="title" x="68" y="108">Classes</text>
  <text class="text" x="80" y="130">Person</text>
  <text class="text" x="80" y="150">Organization</text>
  <text class="title" x="68" y="182">Properties</text>
  <text class="text" x="80" y="204">worksFor</text>
  <text class="text" x="80" y="224">age</text>
  <text class="title" x="68" y="256">Individuals</text>
  <text class="text" x="80" y="278">alice</text>
  <rect class="panel" x="276" y="0" width="644" height="520"/>
  <text class="title" x="292" y="28">Entity Inspector  ex:Person</text>
  <text class="muted" x="292" y="56">IRI</text>
  <text class="text" x="292" y="76">http://example.org/people#Person</text>
  <text class="muted" x="292" y="108">Label</text>
  <text class="text" x="292" y="128">Person</text>
  <text class="muted" x="292" y="160">Comment</text>
  <text class="text" x="292" y="180">A human being.</text>
  <text class="muted" x="292" y="212">Parents</text>
  <text class="text" x="292" y="232">owl:Thing</text>
  <text class="muted" x="292" y="264">Axioms</text>
  <text class="text" x="292" y="284">rdfs:subClassOf owl:Thing</text>
  <text class="muted" x="292" y="316">Source</text>
  <text class="accent" x="292" y="336">fixtures/example.ttl:10</text>
  <text class="muted" x="292" y="480">OntoCode  browse, inspect, jump to source</text>
</svg>
